<?xml version="1.0" ?><svg style="enable-background:new 0 0 48 48;" version="1.1" viewBox="0 0 48 48" xml:space="preserve" xmlns="http://www.w3.org/2000/svg" xmlns:xlink="http://www.w3.org/1999/xlink"><g id="Padding__x26__Artboard"/><g id="Icons"><g><circle cx="24.00012" cy="21.01855" r="4.11609" style="fill:gray;"/><path d="M24,8.30664C15.34668,8.30664,8.30615,15.34668,8.30615,24S15.34668,39.69336,24,39.69336    S39.69385,32.65332,39.69385,24S32.65332,8.30664,24,8.30664z M31.66016,31.79785c-0.19336,0-0.3501-0.15625-0.3501-0.34961    c0-2.20508-1.79346-3.99902-3.99805-3.99902h-6.62354c-2.20508,0-3.99854,1.79395-3.99854,3.99902    c0,0.19336-0.15674,0.34961-0.3501,0.34961s-0.3501-0.15625-0.3501-0.34961c0-2.59082,2.10791-4.69824,4.69873-4.69824h6.62354    c2.59033,0,4.69824,2.10742,4.69824,4.69824C32.01025,31.6416,31.85352,31.79785,31.66016,31.79785z M24,16.20312    c2.65576,0,4.81641,2.16016,4.81641,4.81543S26.65576,25.83398,24,25.83398c-2.65527,0-4.81592-2.16016-4.81592-4.81543    S21.34473,16.20312,24,16.20312z M21.10645,11.63281c-0.03369-0.19043,0.09326-0.37207,0.2832-0.40625    c0.55615-0.09863,1.11377-0.16309,1.65771-0.18945c0.19043,0.00391,0.35742,0.13965,0.3667,0.33203    c0.00928,0.19336-0.13916,0.35742-0.33252,0.36719c-0.51416,0.02539-1.04199,0.08594-1.56885,0.17969    c-0.021,0.00391-0.0415,0.00488-0.06201,0.00488C21.28418,11.9209,21.13672,11.80176,21.10645,11.63281z M14.79785,14.49414    c1.16455-1.00195,3.01855-2.3291,5.23877-2.95703c0.18701-0.04883,0.37939,0.05664,0.43213,0.24121    c0.05225,0.18652-0.05566,0.37988-0.2417,0.43262c-2.09717,0.59277-3.86133,1.85742-4.97217,2.81445    c-0.06641,0.05664-0.14746,0.08398-0.22852,0.08398c-0.09814,0-0.1958-0.04102-0.26514-0.12109    C14.63525,14.8418,14.65137,14.62109,14.79785,14.49414z" style="fill:gray;"/></g></g></svg>